<svg width="145" height="53" viewBox="0 0 145 53" version="1.1" xmlns="http://www.w3.org/2000/svg" xmlns:xlink="http://www.w3.org/1999/xlink">
<title>stele--logo</title>
<desc>Created using Figma</desc>
<g id="Canvas" transform="translate(641 1205)">
<g id="stele--logo">
<g id="Group">
<g id="Group">
<g id="Vector">
<use xlink:href="#path0_fill" transform="translate(-640.897 -1155.48)" fill="#4E4E4E"/>
</g>
<g id="Vector">
<use xlink:href="#path1_fill" transform="translate(-638.364 -1155.48)" fill="#4E4E4E"/>
</g>
<g id="Vector">
<use xlink:href="#path2_fill" transform="translate(-635.163 -1155.55)" fill="#4E4E4E"/>
</g>
<g id="Vector">
<use xlink:href="#path3_fill" transform="translate(-631.106 -1155.55)" fill="#4E4E4E"/>
</g>
<g id="Vector">
<use xlink:href="#path4_fill" transform="translate(-625.56 -1155.55)" fill="#4E4E4E"/>
</g>
<g id="Vector">
<use xlink:href="#path5_fill" transform="translate(-620.579 -1155.48)" fill="#4E4E4E"/>
</g>
<g id="Vector">
<use xlink:href="#path6_fill" transform="translate(-617.84 -1155.48)" fill="#4E4E4E"/>
</g>
<g id="Vector">
<use xlink:href="#path7_fill" transform="translate(-615.136 -1155.55)" fill="#4E4E4E"/>
</g>
<g id="Vector">
<use xlink:href="#path8_fill" transform="translate(-611.216 -1155.48)" fill="#4E4E4E"/>
</g>
<g id="Vector">
<use xlink:href="#path9_fill" transform="translate(-608.546 -1155.48)" fill="#4E4E4E"/>
</g>
<g id="Vector">
<use xlink:href="#path10_fill" transform="translate(-605.807 -1155.48)" fill="#4E4E4E"/>
</g>
<g id="Vector">
<use xlink:href="#path11_fill" transform="translate(-603.171 -1155.48)" fill="#4E4E4E"/>
</g>
<g id="Vector">
<use xlink:href="#path12_fill" transform="translate(-600.826 -1155.48)" fill="#4E4E4E"/>
</g>
<g id="Vector">
<use xlink:href="#path13_fill" transform="translate(-597.899 -1155.48)" fill="#4E4E4E"/>
</g>
<g id="Vector">
<use xlink:href="#path14_fill" transform="translate(-595.776 -1155.48)" fill="#4E4E4E"/>
</g>
<g id="Vector">
<use xlink:href="#path15_fill" transform="translate(-592.113 -1155.48)" fill="#4E4E4E"/>
</g>
<g id="Vector">
<use xlink:href="#path16_fill" transform="translate(-589.648 -1155.55)" fill="#4E4E4E"/>
</g>
<g id="Vector">
<use xlink:href="#path17_fill" transform="translate(-585.592 -1155.48)" fill="#4E4E4E"/>
</g>
<g id="Vector">
<use xlink:href="#path18_fill" transform="translate(-582.647 -1155.48)" fill="#4E4E4E"/>
</g>
<g id="Vector">
<use xlink:href="#path19_fill" transform="translate(-580.439 -1155.48)" fill="#4E4E4E"/>
</g>
<g id="Vector">
<use xlink:href="#path20_fill" transform="translate(-578.95 -1155.48)" fill="#4E4E4E"/>
</g>
<g id="Vector">
<use xlink:href="#path21_fill" transform="translate(-575.561 -1155.55)" fill="#4E4E4E"/>
</g>
</g>
<g id="Group">
<g id="Vector">
<use xlink:href="#path22_fill" transform="translate(-586.345 -1185.13)" fill="#ED6C0C"/>
</g>
<g id="Vector">
<use xlink:href="#path23_fill" transform="translate(-640.983 -1185.13)" fill="#ED6C0C"/>
</g>
<g id="Vector">
<use xlink:href="#path24_fill" transform="translate(-594.749 -1190.01)" fill="#ED6C0C"/>
</g>
<g id="Vector">
<use xlink:href="#path25_fill" transform="translate(-629.36 -1190.01)" fill="#ED6C0C"/>
</g>
<g id="Vector">
<use xlink:href="#path26_fill" transform="translate(-620.87 -1194.9)" fill="#ED6C0C"/>
</g>
<g id="Vector">
<use xlink:href="#path27_fill" transform="translate(-612.397 -1199.79)" fill="#ED6C0C"/>
</g>
<g id="Vector">
<use xlink:href="#path28_fill" transform="translate(-604.249 -1205)" fill="#ED6C0C"/>
</g>
<g id="Vector">
<use xlink:href="#path29_fill" transform="translate(-640.919 -1179.05)" fill="#4E4E4E"/>
</g>
<g id="Vector">
<use xlink:href="#path30_fill" transform="translate(-611.495 -1179.05)" fill="#4E4E4E"/>
</g>
<g id="Vector">
<use xlink:href="#path31_fill" transform="translate(-583.958 -1179.05)" fill="#4E4E4E"/>
</g>
<g id="Vector">
<use xlink:href="#path32_fill" transform="translate(-554.427 -1179.03)" fill="#4E4E4E"/>
</g>
<g id="Vector">
<use xlink:href="#path33_fill" transform="translate(-526.769 -1179.05)" fill="#4E4E4E"/>
</g>
</g>
<g id="Vector">
<use xlink:href="#path34_fill" transform="translate(-641 -1159.54)" fill="#4E4E4E"/>
</g>
</g>
</g>
</g>
<defs>
<path id="path0_fill" d="M 4.08106e-09 1.03648e-06L 0.30811 1.03648e-06L 0.855861 1.03648e-06C 1.21532 1.03648e-06 1.4892 0.0849087 1.71172 0.237744C 1.91713 0.39058 2.03695 0.61134 2.03695 0.883048C 2.03695 1.13777 1.93425 1.34156 1.71172 1.49439L 1.64325 1.54534C 1.72884 1.5793 1.79731 1.63025 1.86578 1.68119C 2.10542 1.85101 2.22524 2.08875 2.22524 2.37744C 2.22524 2.68312 2.10542 2.93784 1.88289 3.12464C 1.66037 3.31144 1.35226 3.41333 0.958565 3.41333L 0.325227 3.41333L 4.08106e-09 3.41333L 4.08106e-09 1.03648e-06ZM 0.633337 1.32457L 0.855861 1.32457C 1.02703 1.32457 1.16397 1.29061 1.24956 1.23967C 1.33514 1.17174 1.38649 1.08683 1.38649 0.967957C 1.38649 0.849085 1.35226 0.747197 1.26667 0.679271C 1.18109 0.611344 1.04415 0.594362 0.872978 0.594362L 0.633337 0.594362L 0.633337 1.32457ZM 0.633337 2.81897L 0.975682 2.81897C 1.18109 2.81897 1.33514 2.785 1.43785 2.7001C 1.54055 2.63217 1.5919 2.5133 1.5919 2.36046C 1.5919 2.20763 1.54055 2.08875 1.42073 2.02083C 1.30091 1.9529 1.14685 1.90195 0.907213 1.90195L 0.633337 1.90195L 0.633337 2.81897Z"/>
<path id="path1_fill" d="M 1.12974 2.1397L -6.5297e-08 1.03648e-06L 0.342344 1.03648e-06L 0.684689 1.03648e-06L 1.43785 1.5793L 2.191 1.03648e-06L 2.53335 1.03648e-06L 2.87569 1.03648e-06L 1.74596 2.1397L 1.74596 3.39635L 1.43785 3.39635L 1.12974 3.39635L 1.12974 2.1397Z"/>
<path id="path2_fill" d="M 1.83154 3.5322C 1.31803 3.5322 0.890096 3.36238 0.530634 3.02275C 0.171172 2.68311 -2.61188e-07 2.25857 -2.61188e-07 1.7661C -2.61188e-07 1.27363 0.171172 0.866071 0.530634 0.509454C 0.890096 0.169819 1.31803 2.07297e-06 1.81443 2.07297e-06C 2.191 2.07297e-06 2.53335 0.101889 2.82434 0.288688C 3.13245 0.475488 3.35498 0.747196 3.49191 1.06985L 2.72164 1.06985C 2.63605 0.917014 2.49911 0.815122 2.32794 0.713232C 2.15677 0.611341 1.9856 0.57738 1.81443 0.57738C 1.4892 0.57738 1.19821 0.696252 0.975682 0.917015C 0.753158 1.13778 0.633337 1.42647 0.633337 1.74912C 0.633337 2.07177 0.753158 2.36046 0.975682 2.58122C 1.19821 2.80199 1.4892 2.92086 1.81443 2.92086C 2.13965 2.92086 2.41353 2.80199 2.63605 2.58122C 2.72164 2.49631 2.79011 2.39443 2.84146 2.29254L 1.42073 2.29254L 1.42073 1.71515L 3.64597 1.71515L 3.64597 1.74912C 3.64597 2.24159 3.4748 2.64915 3.11533 3.00577C 2.75587 3.36238 2.32794 3.5322 1.83154 3.5322Z"/>
<path id="path3_fill" d="M 1.83154 3.5322C 1.31803 3.5322 0.890096 3.36238 0.530634 3.02275C 0.171173 2.68311 -1.30594e-07 2.25857 -1.30594e-07 1.7661C -1.30594e-07 1.27363 0.171173 0.866071 0.530634 0.509454C 0.890096 0.169819 1.31803 2.07297e-06 1.81443 2.07297e-06C 2.191 2.07297e-06 2.53335 0.101889 2.82434 0.288688C 3.13245 0.475488 3.35498 0.747196 3.49191 1.06985L 2.72164 1.06985C 2.63605 0.917014 2.49911 0.815122 2.32794 0.713232C 2.15677 0.611341 1.9856 0.57738 1.81443 0.57738C 1.4892 0.57738 1.19821 0.696252 0.975682 0.917015C 0.753158 1.13778 0.633337 1.42647 0.633337 1.74912C 0.633337 2.07177 0.753158 2.36046 0.975682 2.58122C 1.21532 2.80199 1.4892 2.92086 1.81443 2.92086C 2.13965 2.92086 2.41353 2.80199 2.63605 2.58122C 2.72164 2.49631 2.79011 2.39443 2.84146 2.29254L 1.42073 2.29254L 1.42073 1.71515L 3.64597 1.71515L 3.64597 1.74912C 3.64597 2.24159 3.4748 2.64915 3.11533 3.00577C 2.77299 3.36238 2.34506 3.5322 1.83154 3.5322Z"/>
<path id="path4_fill" d="M 0.359462 0.866067C 0.359462 0.628322 0.445048 0.424545 0.616221 0.254728C 0.787393 0.0849108 0.992799 2.07297e-06 1.23244 2.07297e-06C 1.47208 2.07297e-06 1.67749 0.0849097 1.84866 0.237745C 2.01983 0.407563 2.10542 0.594362 2.10542 0.832106C 2.10542 1.05287 2.03695 1.25665 1.90001 1.40948C 1.81443 1.51137 1.71172 1.59628 1.55767 1.66421L 1.5919 1.69818L 1.88289 2.02083L 2.07118 1.68119C 2.17389 1.51138 2.22524 1.42647 2.22524 1.44345L 2.89281 1.44345C 2.89281 1.42647 2.82434 1.56232 2.6874 1.81704C 2.5847 2.00384 2.46488 2.22461 2.32794 2.49631L 2.92705 3.14162L 2.482 3.5322L 2.01983 3.03973C 1.93425 3.1586 1.83154 3.26049 1.71172 3.3454C 1.52343 3.48125 1.33514 3.54918 1.12974 3.54918C 0.821627 3.54918 0.547751 3.44729 0.325227 3.24351C 0.102703 3.03973 -5.22376e-07 2.785 -5.22376e-07 2.47933C -5.22376e-07 2.22461 0.0855856 2.00384 0.256758 1.81704C 0.359461 1.69817 0.496399 1.59629 0.650455 1.52836L 0.513516 1.34156C 0.410813 1.15476 0.359462 1.00192 0.359462 0.866067ZM 1.0955 2.93784C 1.19821 2.93784 1.30091 2.8869 1.40361 2.78501C 1.47208 2.71708 1.52343 2.64915 1.5919 2.56424L 1.16397 2.08875L 1.04415 1.9529C 0.975682 1.98687 0.907213 2.03781 0.838744 2.08875C 0.701806 2.20763 0.616221 2.34348 0.616221 2.47933C 0.616221 2.5982 0.667571 2.71708 0.753158 2.80199C 0.855861 2.90388 0.975682 2.93784 1.0955 2.93784ZM 0.941447 0.866067C 0.941447 0.917012 0.975681 0.984941 1.02703 1.06985L 1.19821 1.25665C 1.26667 1.22269 1.31803 1.18872 1.36938 1.15476C 1.4892 1.06985 1.54055 0.967957 1.54055 0.866067C 1.54055 0.781158 1.50632 0.713233 1.45496 0.645306C 1.40361 0.594361 1.33514 0.560397 1.23244 0.560397C 1.14685 0.560397 1.07838 0.594361 1.02703 0.645306C 0.975681 0.713233 0.941447 0.781158 0.941447 0.866067Z"/>
<path id="path5_fill" d="M 5.22376e-07 1.03648e-06L 0.30811 1.03648e-06L 0.907213 1.03648e-06C 1.31803 1.03648e-06 1.62614 0.0849107 1.84866 0.27171C 2.07119 0.441527 2.19101 0.696252 2.19101 1.01891C 2.19101 1.37552 2.0883 1.64723 1.86578 1.83403C 1.64325 2.02083 1.33514 2.10574 0.907213 2.10574L 0.633337 2.10574L 0.633337 3.39635L 0.325227 3.39635L 0.0171175 3.39635L 0.0171175 1.03648e-06L 5.22376e-07 1.03648e-06ZM 0.633337 1.52836L 0.907213 1.52836C 1.12974 1.52836 1.28379 1.49439 1.3865 1.40948C 1.4892 1.32457 1.54055 1.22268 1.54055 1.05287C 1.54055 0.90003 1.4892 0.781162 1.3865 0.696253C 1.28379 0.611345 1.11262 0.577379 0.907213 0.577379L 0.633337 0.577379L 0.633337 1.52836Z"/>
<path id="path6_fill" d="M 5.22376e-07 1.03648e-06L 0.308111 1.03648e-06L 0.9928 1.03648e-06C 1.40361 1.03648e-06 1.71172 0.0849107 1.93425 0.27171C 2.15677 0.458509 2.27659 0.713235 2.27659 1.03589C 2.27659 1.40949 2.15677 1.69818 1.93425 1.88497C 1.79731 2.00385 1.60902 2.08876 1.38649 2.1397L 2.31083 3.39635L 1.93425 3.39635L 1.55767 3.39635L 0.616219 2.03781L 0.616219 3.39635L 0.308111 3.39635L 5.22376e-07 3.39635L 5.22376e-07 1.03648e-06ZM 0.633337 1.63025L 0.958564 1.63025C 1.18109 1.63025 1.36938 1.5793 1.47208 1.49439C 1.5919 1.40948 1.64325 1.27363 1.64325 1.10381C 1.64325 0.933996 1.5919 0.79814 1.47208 0.713231C 1.35226 0.628322 1.18109 0.577379 0.958564 0.577379L 0.633337 0.577379L 0.633337 1.63025Z"/>
<path id="path7_fill" d="M 0.530633 3.02275C 0.188289 2.68311 1.04475e-06 2.25857 1.04475e-06 1.7661C 1.04475e-06 1.27363 0.171172 0.866071 0.530633 0.509454C 0.890095 0.152838 1.30091 2.07297e-06 1.79731 2.07297e-06C 2.29371 2.07297e-06 2.72164 0.169819 3.06398 0.509454C 3.40633 0.849089 3.59462 1.27363 3.59462 1.7661C 3.59462 2.25857 3.42344 2.66613 3.06398 3.02275C 2.72164 3.36238 2.29371 3.5322 1.79731 3.5322C 1.30091 3.5322 0.872978 3.36238 0.530633 3.02275ZM 2.61893 2.59821C 2.84146 2.37744 2.96128 2.08875 2.96128 1.7661C 2.96128 1.44345 2.84146 1.15476 2.61893 0.933998C 2.39641 0.713235 2.12254 0.594363 1.79731 0.594363C 1.47208 0.594363 1.19821 0.713235 0.975682 0.933998C 0.753158 1.15476 0.633338 1.44345 0.633338 1.7661C 0.633338 2.08875 0.753158 2.37744 0.975682 2.59821C 1.19821 2.81897 1.47208 2.93784 1.79731 2.93784C 2.12254 2.95482 2.39641 2.83595 2.61893 2.59821Z"/>
<path id="path8_fill" d="M 1.26667 1.03648e-06L 1.57478 1.03648e-06L 1.88289 1.03648e-06L 1.88289 2.37744C 1.88289 2.71708 1.79731 2.98878 1.64325 3.17558C 1.4892 3.36238 1.24956 3.46427 0.941447 3.46427C 0.684689 3.46427 0.479283 3.37937 0.308111 3.22653C 0.136938 3.07369 0.0342344 2.85293 -4.86501e-15 2.5982L 0.650455 2.5982C 0.667572 2.68311 0.684688 2.75104 0.753157 2.80199C 0.821626 2.85293 0.87298 2.86991 0.958566 2.86991C 1.06127 2.86991 1.14685 2.83595 1.19821 2.75104C 1.24956 2.66613 1.26667 2.54726 1.26667 2.37744L 1.26667 1.03648e-06Z"/>
<path id="path9_fill" d="M 1.04475e-06 3.39635L 1.04475e-06 1.03648e-06L 1.84866 1.03648e-06L 1.84866 0.288687L 1.84866 0.577379L 0.633338 0.577379L 0.633338 1.40948L 1.78019 1.40948L 1.78019 1.69817L 1.78019 1.98686L 0.633338 1.98686L 0.633338 2.785L 1.84866 2.785L 1.84866 3.0737L 1.84866 3.36238L 1.04475e-06 3.36238L 1.04475e-06 3.39635Z"/>
<path id="path10_fill" d="M 0.61622 3.39635L 0.308109 3.39635L 1.04475e-06 3.39635L 1.04475e-06 1.03648e-06L 0.308109 1.03648e-06L 0.61622 1.03648e-06L 0.61622 1.49439L 1.69461 1.03648e-06L 2.07118 1.03648e-06L 2.44776 1.03648e-06L 1.14685 1.66421L 2.44776 3.39635L 2.07118 3.39635L 1.69461 3.39635L 0.61622 1.90195L 0.61622 3.39635Z"/>
<path id="path11_fill" d="M 0.650455 0.577379L 0 0.577379L 0 0.288687L 0 1.03648e-06L 1.90001 1.03648e-06L 1.90001 0.288687L 1.90001 0.577379L 1.26667 0.577379L 1.26667 3.39635L 0.958566 3.39635L 0.650455 3.39635L 0.650455 0.577379Z"/>
<path id="path12_fill" d="M 2.46488 2.12272C 2.46488 2.54726 2.36218 2.88689 2.13965 3.10766C 1.93425 3.3454 1.62614 3.44729 1.23244 3.44729C 0.838743 3.44729 0.530635 3.32842 0.325228 3.10766C 0.119822 2.88689 -5.22376e-07 2.54726 -5.22376e-07 2.12272L -5.22376e-07 1.03648e-06L 0.30811 1.03648e-06L 0.616221 1.03648e-06L 0.616221 2.15668C 0.616221 2.39442 0.667571 2.58122 0.770275 2.7001C 0.872978 2.81897 1.00992 2.8869 1.21532 2.8869C 1.42073 2.8869 1.55767 2.81897 1.66037 2.7001C 1.76307 2.58122 1.81443 2.39442 1.81443 2.15668L 1.81443 1.03648e-06L 2.12254 1.03648e-06L 2.43064 1.03648e-06L 2.43064 2.12272L 2.46488 2.12272Z"/>
<path id="path13_fill" d="M 0.633337 0.577379L 5.22376e-07 0.577379L 5.22376e-07 0.288687L 5.22376e-07 1.03648e-06L 1.90001 1.03648e-06L 1.90001 0.288687L 1.90001 0.577379L 1.26668 0.577379L 1.26668 3.39635L 0.958563 3.39635L 0.650456 3.39635L 0.650456 0.577379L 0.633337 0.577379Z"/>
<path id="path14_fill" d="M 2.0895e-06 1.03648e-06L 0.325228 1.03648e-06L 0.667573 1.03648e-06L 1.5919 2.5982L 2.51623 1.03648e-06L 2.84146 1.03648e-06L 3.1838 1.03648e-06L 1.84866 3.39635L 1.5919 3.39635L 1.33514 3.39635L 2.0895e-06 1.03648e-06Z"/>
<path id="path15_fill" d="M 1.04475e-06 3.39635L 1.04475e-06 1.03648e-06L 1.84866 1.03648e-06L 1.84866 0.288687L 1.84866 0.577379L 0.633335 0.577379L 0.633335 1.40948L 1.78019 1.40948L 1.78019 1.69817L 1.78019 1.98686L 0.633335 1.98686L 0.633335 2.785L 1.84866 2.785L 1.84866 3.0737L 1.84866 3.36238L 1.04475e-06 3.36238L 1.04475e-06 3.39635Z"/>
<path id="path16_fill" d="M 3.3721 2.5133C 3.23516 2.81897 3.02975 3.07369 2.73876 3.26049C 2.44776 3.44729 2.12253 3.5322 1.76307 3.5322C 1.26667 3.5322 0.855861 3.36238 0.513517 3.02275C 0.171172 2.68311 0 2.25857 0 1.7661C 0 1.27363 0.171172 0.866071 0.513517 0.509454C 0.855861 0.152838 1.26667 2.07297e-06 1.76307 2.07297e-06C 2.12253 2.07297e-06 2.44776 0.101889 2.73876 0.288688C 3.02975 0.475488 3.25227 0.730213 3.3721 1.03588L 2.65317 1.03588C 2.55047 0.90003 2.41353 0.781159 2.24236 0.713232C 2.07119 0.645305 1.90001 0.594363 1.72884 0.594363C 1.42073 0.594363 1.16397 0.713235 0.941447 0.933998C 0.718923 1.15476 0.616221 1.42647 0.616221 1.74912C 0.616221 2.08875 0.736042 2.37744 0.958566 2.59821C 1.18109 2.81897 1.45496 2.95482 1.78019 2.95482C 1.93425 2.95482 2.10542 2.92086 2.25948 2.83595C 2.41353 2.75104 2.55047 2.64915 2.65317 2.5133L 3.3721 2.5133Z"/>
<path id="path17_fill" d="M 0.616218 3.39635L 0.30811 3.39635L 2.0895e-06 3.39635L 2.0895e-06 1.03648e-06L 0.30811 1.03648e-06L 0.616218 1.03648e-06L 0.616218 1.49439L 1.69461 1.03648e-06L 2.07118 1.03648e-06L 2.44776 1.03648e-06L 1.14685 1.66421L 2.44776 3.39635L 2.07118 3.39635L 1.69461 3.39635L 0.616218 1.90195L 0.616218 3.39635Z"/>
<path id="path18_fill" d="M -1.04475e-06 3.39635L -1.04475e-06 1.03648e-06L 0.308112 1.03648e-06L 0.61622 1.03648e-06L 0.61622 2.81897L 1.66037 2.81897L 1.66037 3.10766L 1.66037 3.39635L -1.04475e-06 3.39635Z"/>
<path id="path19_fill" d="M -2.0895e-06 1.03648e-06L 0.308111 1.03648e-06L 0.616219 1.03648e-06L 0.616219 3.39635L 0.308111 3.39635L -2.0895e-06 3.39635L -2.0895e-06 1.03648e-06Z"/>
<path id="path20_fill" d="M 0.616221 3.39635L 0.308108 3.39635L 0 3.39635L 0 1.03648e-06L 0.359463 1.03648e-06L 0.718925 1.03648e-06L 2.13965 2.47934L 2.13965 1.03648e-06L 2.44776 1.03648e-06L 2.75587 1.03648e-06L 2.75587 3.39635L 2.41353 3.39635L 2.07119 3.39635L 0.616221 0.900031L 0.616221 3.39635Z"/>
<path id="path21_fill" d="M 1.83154 3.5322C 1.31803 3.5322 0.890095 3.36238 0.530633 3.02275C 0.171171 2.68311 -2.0895e-06 2.25857 -2.0895e-06 1.7661C -2.0895e-06 1.27363 0.171171 0.866071 0.530633 0.509454C 0.890095 0.169819 1.31803 2.07297e-06 1.81442 2.07297e-06C 2.191 2.07297e-06 2.53335 0.101889 2.82434 0.288688C 3.11533 0.475488 3.35498 0.747196 3.49192 1.06985L 2.72164 1.06985C 2.63605 0.917014 2.49911 0.815122 2.32794 0.713232C 2.15677 0.628323 1.9856 0.57738 1.81442 0.57738C 1.4892 0.57738 1.19821 0.696252 0.975682 0.917015C 0.753158 1.13778 0.633337 1.42647 0.633337 1.74912C 0.633337 2.07177 0.753158 2.36046 0.975682 2.58122C 1.19821 2.80199 1.4892 2.92086 1.81442 2.92086C 2.13965 2.92086 2.41353 2.80199 2.63605 2.58122C 2.72164 2.49631 2.79011 2.39443 2.84146 2.29254L 1.42073 2.29254L 1.42073 1.71515L 3.64597 1.71515L 3.64597 1.74912C 3.64597 2.24159 3.4748 2.64915 3.11533 3.00577C 2.77299 3.36238 2.34506 3.5322 1.83154 3.5322Z"/>
<path id="path22_fill" fill-rule="evenodd" d="M 90.3447 0L -2.0895e-06 0L 5.4604 3.20955L 89.7456 3.20955L 90.3447 0Z"/>
<path id="path23_fill" fill-rule="evenodd" d="M 33.8408 0L 0.992799 0L 2.55067e-10 3.20955L 28.3804 3.20955L 33.8408 0Z"/>
<path id="path24_fill" fill-rule="evenodd" d="M 23.6389 5.18241e-07L 2.0895e-06 5.18241e-07L 6.98383 4.05863L 30.6569 4.05863L 23.6389 5.18241e-07Z"/>
<path id="path25_fill" fill-rule="evenodd" d="M 30.6569 5.18241e-07L 6.98383 5.18241e-07L 0 4.05863L 23.656 4.05863L 30.6569 5.18241e-07Z"/>
<path id="path26_fill" fill-rule="evenodd" d="M 41.4066 0L 6.86401 0L -2.61188e-07 4.07562L 23.6218 4.07562L 24.1524 3.78693L 24.5974 4.07562L 48.3048 4.07562L 41.4066 0Z"/>
<path id="path27_fill" fill-rule="evenodd" d="M 24.5461 1.2956e-07L 6.6586 1.2956e-07L 1.04475e-06 4.07562L 31.3416 4.07562L 24.5461 1.2956e-07Z"/>
<path id="path28_fill" fill-rule="evenodd" d="M 7.48023 0L -5.22376e-07 4.39827L 15.046 4.39827L 7.48023 0Z"/>
<path id="path29_fill" fill-rule="evenodd" d="M 26.1427 14.2647C 25.903 15.6402 24.4481 16.6251 21.7778 17.2195C 20.1688 17.5761 18.3372 17.7629 16.3003 17.7629L 0.466833 17.7629C 0.124489 17.7629 -0.0295661 17.644 0.00466833 17.4233L 0.432599 15.0458C 0.466833 14.8251 0.67224 14.7062 1.01458 14.7062L 13.202 14.7062L 4.6092 8.81352C 2.26414 7.21724 1.25423 5.6719 1.5281 4.10958C 1.69927 3.10766 2.38396 2.25857 3.58217 1.54534C 4.47226 1.00192 5.53353 0.57738 6.74885 0.305672C 7.72454 0.101891 8.73445 5.18241e-07 9.7786 5.18241e-07L 26.5877 5.18241e-07C 26.9129 5.18241e-07 27.067 0.118873 27.0328 0.339635L 26.6048 2.75104C 26.5706 2.95482 26.3823 3.05671 26.0571 3.05671L 13.7327 3.05671L 22.2913 9.03428C 25.1328 11.0042 26.4165 12.7363 26.1427 14.2647Z"/>
<path id="path30_fill" fill-rule="evenodd" d="M 27.5292 2.75104C 27.4949 2.95482 27.3067 3.05671 26.9814 3.05671L 19.039 3.05671L 16.4886 17.4233C 16.4543 17.644 16.266 17.7629 15.9408 17.7629L 6.02995 17.7629C 5.70472 17.7629 5.55066 17.644 5.5849 17.4233L 8.13536 3.05671L 0.449729 3.05671C 0.124502 3.05671 -0.0295542 2.95482 0.00468023 2.75104L 0.432611 0.339635C 0.466845 0.118873 0.655137 5.18241e-07 0.980364 5.18241e-07L 27.5121 5.18241e-07C 27.8373 5.18241e-07 27.9913 0.118873 27.9571 0.339635L 27.5292 2.75104Z"/>
<path id="path31_fill" fill-rule="evenodd" d="M 27.8934 9.28901C 27.8591 9.50977 27.6708 9.62864 27.3456 9.62864L 14.1482 9.62864C 13.8059 9.62864 13.6518 9.50977 13.6861 9.28901L 14.114 6.89458C 14.1482 6.67382 14.3536 6.55495 14.696 6.55495L 27.8934 6.55495C 28.2186 6.55495 28.3727 6.67382 28.3213 6.89458L 27.8934 9.28901ZM 26.4384 17.4233C 26.4042 17.644 26.2159 17.7629 25.8735 17.7629L 7.25 17.7629C 4.68241 17.7629 2.74817 16.9138 1.43014 15.1987C 0.146348 13.5344 -0.281586 11.4457 0.180579 8.88145C 0.642744 6.30023 1.80672 4.16053 3.68961 2.49632C 5.5725 0.832105 7.81486 5.18241e-07 10.3996 5.18241e-07L 29.0402 5.18241e-07C 29.3654 5.18241e-07 29.5195 0.118873 29.4853 0.339635L 29.0573 2.75104C 29.0231 2.95482 28.8348 3.05671 28.5096 3.05671L 15.9969 3.05671C 14.7131 3.05671 13.7717 3.43031 13.2068 4.19449C 12.7789 4.75489 12.4365 5.72284 12.1969 7.11535L 11.7005 9.93432C 11.4437 11.3778 11.4095 12.4476 11.5978 13.1439C 11.8888 14.1797 12.659 14.6892 13.9428 14.6892L 26.4555 14.6892C 26.7807 14.6892 26.9348 14.8081 26.9006 15.0288L 26.4384 17.4233Z"/>
<path id="path32_fill" fill-rule="evenodd" d="M 24.9628 17.4063C 24.9286 17.627 24.7403 17.7459 24.4151 17.7459L 7.12666 17.7459C 4.66178 17.7459 2.77888 16.9648 1.47797 15.3855C 0.159947 13.8062 -0.267985 11.8023 0.159945 9.37392L 1.76896 0.339634C 1.80319 0.118871 1.99148 -1.03648e-06 2.31671 -1.03648e-06L 12.7925 -1.03648e-06C 13.1177 -1.03648e-06 13.2717 0.118871 13.2375 0.339634L 11.406 10.6306C 11.1492 12.0231 11.1492 13.008 11.3888 13.5514C 11.7141 14.3156 12.5015 14.6892 13.7681 14.6892L 24.9628 14.6892C 25.288 14.6892 25.4421 14.8081 25.3907 15.0288L 24.9628 17.4063Z"/>
<path id="path33_fill" fill-rule="evenodd" d="M 27.8934 9.28901C 27.8591 9.50977 27.6708 9.62864 27.3456 9.62864L 14.1482 9.62864C 13.8059 9.62864 13.6518 9.50977 13.6861 9.28901L 14.114 6.89458C 14.1482 6.67382 14.3536 6.55495 14.696 6.55495L 27.8934 6.55495C 28.2186 6.55495 28.3726 6.67382 28.3213 6.89458L 27.8934 9.28901ZM 26.4384 17.4233C 26.4042 17.644 26.2159 17.7629 25.8906 17.7629L 7.25 17.7629C 4.68241 17.7629 2.74817 16.9138 1.43014 15.1987C 0.146349 13.5344 -0.28158 11.4457 0.180585 8.88145C 0.642751 6.30023 1.80672 4.16053 3.68962 2.49632C 5.57251 0.832105 7.81486 5.18241e-07 10.3996 5.18241e-07L 29.0402 5.18241e-07C 29.3654 5.18241e-07 29.5195 0.118873 29.4681 0.339635L 29.0402 2.75104C 29.006 2.95482 28.8177 3.05671 28.4925 3.05671L 15.9798 3.05671C 14.696 3.05671 13.7545 3.43031 13.1897 4.19449C 12.7617 4.75489 12.4194 5.72284 12.1798 7.11535L 11.6834 9.93432C 11.4266 11.3778 11.3924 12.4476 11.5807 13.1439C 11.8716 14.1797 12.6419 14.6892 13.9257 14.6892L 26.4384 14.6892C 26.7636 14.6892 26.9177 14.8081 26.8835 15.0288L 26.4384 17.4233Z"/>
<path id="path34_fill" d="M 140.841 2.07297e-06L 0 2.07297e-06L 0 0.849089L 140.841 0.849089L 140.841 2.07297e-06Z"/>
</defs>
</svg>
